<svg width="60" height="60" viewBox="0 0 60 60" fill="none" xmlns="http://www.w3.org/2000/svg">
    <rect width="60" height="60" rx="15" fill="#007AFF" fill-opacity="0.1"/>
    <path d="M30 15C22.268 15 16 21.268 16 29C16 36.732 22.268 43 30 43C37.732 43 44 36.732 44 29C44 21.268 37.732 15 30 15ZM30 19C32.206 19 34 20.794 34 23C34 25.206 32.206 27 30 27C27.794 27 26 25.206 26 23C26 20.794 27.794 19 30 19ZM30 39.4C26.5 39.4 23.372 37.784 21.4 35.188C21.454 32.094 27.6 30.4 30 30.4C32.384 30.4 38.546 32.094 38.6 35.188C36.628 37.784 33.5 39.4 30 39.4Z" fill="#007AFF"/>
</svg>
