<svg width="512" height="512" viewBox="0 0 512 512" fill="none" xmlns="http://www.w3.org/2000/svg">
    <rect width="512" height="512" rx="128" fill="#007AFF"/>
    <rect x="128" y="128" width="256" height="256" rx="42" fill="white" fill-opacity="0.9"/>
    <path d="M256 168C220.654 168 192 196.654 192 232C192 275.904 256 320 256 320C256 320 320 275.904 320 232C320 196.654 291.346 168 256 168ZM256 256C241.272 256 229.333 244.061 229.333 229.333C229.333 214.605 241.272 202.667 256 202.667C270.728 202.667 282.667 214.605 282.667 229.333C282.667 244.061 270.728 256 256 256Z" fill="#007AFF"/>
</svg>
