<svg width="1284" height="2778" viewBox="0 0 1284 2778" fill="none" xmlns="http://www.w3.org/2000/svg">
    <rect width="1284" height="2778" fill="#000000"/>
    <rect x="442" y="1239" width="400" height="400" rx="50" fill="#007AFF"/>
    <path d="M642 1339C605.549 1339 576 1368.55 576 1405C576 1449.86 642 1495 642 1495C642 1495 708 1449.86 708 1405C708 1368.55 678.451 1339 642 1339ZM642 1429C626.536 1429 614 1416.46 614 1401C614 1385.54 626.536 1373 642 1373C657.464 1373 670 1385.54 670 1401C670 1416.46 657.464 1429 642 1429Z" fill="white"/>
    <text x="642" y="1591" text-anchor="middle" font-family="SF Pro Display" font-size="48" fill="white">Digital Business Card</text>
</svg>
