<svg width="1179" height="2556" viewBox="0 0 1179 2556" fill="none" xmlns="http://www.w3.org/2000/svg">
    <rect width="1179" height="2556" fill="#000000"/>
    <rect x="389.5" y="1128" width="400" height="400" rx="50" fill="#007AFF"/>
    <path d="M589.5 1228C553.049 1228 523.5 1257.55 523.5 1294C523.5 1338.86 589.5 1384 589.5 1384C589.5 1384 655.5 1338.86 655.5 1294C655.5 1257.55 625.951 1228 589.5 1228ZM589.5 1318C574.036 1318 561.5 1305.46 561.5 1290C561.5 1274.54 574.036 1262 589.5 1262C604.964 1262 617.5 1274.54 617.5 1290C617.5 1305.46 604.964 1318 589.5 1318Z" fill="white"/>
    <text x="589.5" y="1480" text-anchor="middle" font-family="SF Pro Display" font-size="48" fill="white">Digital Business Card</text>
</svg>
